<svg width="35" height="35" viewBox="0 0 35 35" fill="none" xmlns="http://www.w3.org/2000/svg">
<path d="M20.0229 30.6251C19.7665 31.0671 19.3985 31.434 18.9557 31.689C18.513 31.944 18.011 32.0782 17.5 32.0782C16.989 32.0782 16.487 31.944 16.0443 31.689C15.6015 31.434 15.2335 31.0671 14.9771 30.6251M26.25 11.6667C26.25 9.3461 25.3281 7.12051 23.6872 5.47956C22.0462 3.83862 19.8206 2.91675 17.5 2.91675C15.1794 2.91675 12.9538 3.83862 11.3128 5.47956C9.67187 7.12051 8.75 9.3461 8.75 11.6667C8.75 21.8751 4.375 24.7918 4.375 24.7918H30.625C30.625 24.7918 26.25 21.8751 26.25 11.6667Z" stroke="#1E1E1E" stroke-width="4" stroke-linecap="round" stroke-linejoin="round"/>
</svg>
